<svg width="12" height="12" viewBox="0 0 12 12" fill="none" xmlns="http://www.w3.org/2000/svg">
<g id="vuesax/bold/facebook">
<g id="facebook">
<path id="Vector" d="M11 8.095C11 9.915 9.915 11 8.095 11H7.5C7.225 11 7 10.775 7 10.5V7.61501C7 7.48001 7.10999 7.36501 7.245 7.36501L8.125 7.35001C8.195 7.34501 8.255 7.29501 8.27 7.22501L8.44501 6.27C8.46001 6.18 8.39 6.095 8.295 6.095L7.23 6.11C7.09 6.11 6.98001 6.00001 6.97501 5.86501L6.955 4.64C6.955 4.56 7.02 4.49001 7.105 4.49001L8.30499 4.47C8.38999 4.47 8.455 4.40501 8.455 4.32001L8.435 3.12C8.435 3.035 8.37 2.97 8.285 2.97L6.935 2.99001C6.105 3.00501 5.44501 3.685 5.46001 4.515L5.485 5.89C5.49 6.03 5.38001 6.14 5.24001 6.145L4.64 6.155C4.555 6.155 4.49001 6.21999 4.49001 6.30499L4.505 7.255C4.505 7.34 4.57 7.405 4.655 7.405L5.255 7.395C5.395 7.395 5.50499 7.505 5.50999 7.64L5.55499 10.49C5.55999 10.77 5.33499 11 5.05499 11H3.905C2.085 11 1 9.915 1 8.09V3.905C1 2.085 2.085 1 3.905 1H8.095C9.915 1 11 2.085 11 3.905V8.095Z" fill="#788FBC"/>
</g>
</g>
</svg>
