<svg width="20" height="20" viewBox="0 0 20 20" fill="none" xmlns="http://www.w3.org/2000/svg">
<g id="vuesax/bold/game">
<g id="game">
<path id="Vector" d="M13.875 4.76758H6.125C3.66667 4.76758 1.66667 6.76758 1.66667 9.22591V13.8759C1.66667 16.3342 3.66667 18.3342 6.125 18.3342H13.875C16.3333 18.3342 18.3333 16.3342 18.3333 13.8759V9.22591C18.3333 6.76758 16.3333 4.76758 13.875 4.76758ZM12.0833 10.0176C12.0833 9.55925 12.4583 9.18425 12.9167 9.18425C13.375 9.18425 13.75 9.55925 13.75 10.0176C13.75 10.4759 13.375 10.8592 12.9167 10.8592C12.4583 10.8592 12.0833 10.4926 12.0833 10.0342V10.0176ZM8.44167 13.3926C8.31667 13.5176 8.15833 13.5759 8 13.5759C7.84167 13.5759 7.68333 13.5176 7.55833 13.3926L6.7 12.5342L5.875 13.3592C5.75 13.4842 5.59167 13.5426 5.43333 13.5426C5.275 13.5426 5.11667 13.4842 4.99167 13.3592C4.75 13.1176 4.75 12.7176 4.99167 12.4759L5.81667 11.6509L5.01667 10.8509C4.775 10.6092 4.775 10.2092 5.01667 9.96758C5.25833 9.72591 5.65833 9.72591 5.9 9.96758L6.7 10.7676L7.525 9.94258C7.76667 9.70091 8.16667 9.70091 8.40833 9.94258C8.65 10.1842 8.65 10.5842 8.40833 10.8259L7.58333 11.6509L8.44167 12.5092C8.68333 12.7509 8.68333 13.1509 8.44167 13.3926ZM11.2833 12.5009C10.825 12.5009 10.4417 12.1259 10.4417 11.6676C10.4417 11.2092 10.8083 10.8342 11.2667 10.8342H11.2833C11.7417 10.8342 12.1167 11.2092 12.1167 11.6676C12.1167 12.1259 11.75 12.5009 11.2833 12.5009ZM12.9167 14.1426C12.4583 14.1426 12.0833 13.7759 12.0833 13.3176V13.3009C12.0833 12.8426 12.4583 12.4676 12.9167 12.4676C13.375 12.4676 13.75 12.8426 13.75 13.3009C13.75 13.7592 13.3833 14.1426 12.9167 14.1426ZM14.5667 12.5009C14.1083 12.5009 13.725 12.1259 13.725 11.6676C13.725 11.2092 14.0917 10.8342 14.55 10.8342H14.5667C15.025 10.8342 15.4 11.2092 15.4 11.6676C15.4 12.1259 15.0333 12.5009 14.5667 12.5009Z" fill="#292D32"/>
<path id="Vector_2" d="M11.3667 2.25768L11.3583 3.04102C11.35 3.77435 10.7417 4.38268 10 4.38268C9.875 4.38268 9.8 4.46602 9.8 4.57435C9.8 4.68268 9.88333 4.76602 9.99167 4.76602H8.65C8.64167 4.70768 8.63333 4.64102 8.63333 4.57435C8.63333 3.82435 9.24167 3.21602 9.98333 3.21602C10.1083 3.21602 10.1917 3.13268 10.1917 3.02435L10.2 2.24102C10.2083 1.92435 10.4667 1.66602 10.7833 1.66602H10.7917C11.1167 1.66602 11.3667 1.93268 11.3667 2.25768Z" fill="#292D32"/>
</g>
</g>
</svg>
