<svg width="20" height="20" viewBox="0 0 20 20" fill="none" xmlns="http://www.w3.org/2000/svg">
<g id="vuesax/bold/global">
<path id="Vector" d="M6.375 17.4255C6.35 17.4255 6.31667 17.4422 6.29167 17.4422C4.675 16.6422 3.35834 15.3172 2.55 13.7005C2.55 13.6755 2.56667 13.6422 2.56667 13.6172C3.58334 13.9172 4.63334 14.1422 5.675 14.3172C5.85834 15.3672 6.075 16.4089 6.375 17.4255Z" fill="#292D32"/>
<path id="Vector_2" d="M17.45 13.7089C16.625 15.3672 15.25 16.7089 13.575 17.5172C13.8917 16.4589 14.1583 15.3922 14.3333 14.3172C15.3833 14.1422 16.4167 13.9172 17.4333 13.6172C17.425 13.6505 17.45 13.6839 17.45 13.7089Z" fill="#292D32"/>
<path id="Vector_3" d="M17.5167 6.42409C16.4667 6.10742 15.4083 5.84909 14.3333 5.66576C14.1583 4.59076 13.9 3.52409 13.575 2.48242C15.3 3.30742 16.6917 4.69909 17.5167 6.42409Z" fill="#292D32"/>
<path id="Vector_4" d="M6.375 2.57578C6.075 3.59245 5.85834 4.62578 5.68334 5.67578C4.60834 5.84245 3.54167 6.10911 2.48334 6.42578C3.29167 4.75078 4.63334 3.37578 6.29167 2.55078C6.31667 2.55078 6.35 2.57578 6.375 2.57578Z" fill="#292D32"/>
<path id="Vector_5" d="M12.9083 5.49102C10.975 5.27435 9.02499 5.27435 7.09166 5.49102C7.29999 4.34935 7.56666 3.20768 7.94166 2.10768C7.95833 2.04102 7.94999 1.99102 7.95833 1.92435C8.61666 1.76602 9.29166 1.66602 9.99999 1.66602C10.7 1.66602 11.3833 1.76602 12.0333 1.92435C12.0417 1.99102 12.0417 2.04102 12.0583 2.10768C12.4333 3.21602 12.7 4.34935 12.9083 5.49102Z" fill="#292D32"/>
<path id="Vector_6" d="M5.49167 12.9085C4.34167 12.7001 3.20834 12.4335 2.10834 12.0585C2.04167 12.0418 1.99167 12.0501 1.92501 12.0418C1.76667 11.3835 1.66667 10.7085 1.66667 10.0001C1.66667 9.30013 1.76667 8.6168 1.92501 7.9668C1.99167 7.95846 2.04167 7.95846 2.10834 7.9418C3.21667 7.57513 4.34167 7.30013 5.49167 7.0918C5.28334 9.02513 5.28334 10.9751 5.49167 12.9085Z" fill="#292D32"/>
<path id="Vector_7" d="M18.3333 10.0001C18.3333 10.7085 18.2333 11.3835 18.075 12.0418C18.0083 12.0501 17.9583 12.0418 17.8917 12.0585C16.7833 12.4251 15.65 12.7001 14.5083 12.9085C14.725 10.9751 14.725 9.02513 14.5083 7.0918C15.65 7.30013 16.7917 7.5668 17.8917 7.9418C17.9583 7.95846 18.0083 7.9668 18.075 7.9668C18.2333 8.62513 18.3333 9.30013 18.3333 10.0001Z" fill="#292D32"/>
<path id="Vector_8" d="M12.9083 14.5078C12.7 15.6578 12.4333 16.7911 12.0583 17.8911C12.0417 17.9578 12.0417 18.0078 12.0333 18.0745C11.3833 18.2328 10.7 18.3328 9.99999 18.3328C9.29166 18.3328 8.61666 18.2328 7.95833 18.0745C7.94999 18.0078 7.95833 17.9578 7.94166 17.8911C7.57499 16.7828 7.29999 15.6578 7.09166 14.5078C8.05833 14.6161 9.02499 14.6911 9.99999 14.6911C10.975 14.6911 11.95 14.6161 12.9083 14.5078Z" fill="#292D32"/>
<path id="Vector_9" d="M13.1361 13.1355C11.0519 13.3984 8.94814 13.3984 6.8639 13.1355C6.60093 11.0512 6.60093 8.94749 6.8639 6.86324C8.94814 6.60027 11.0519 6.60027 13.1361 6.86324C13.3991 8.94749 13.3991 11.0512 13.1361 13.1355Z" fill="#292D32"/>
</g>
</svg>
