<svg width="20" height="20" viewBox="0 0 20 20" fill="none" xmlns="http://www.w3.org/2000/svg">
<g id="vuesax/bold/mobile">
<g id="mobile">
<path id="Vector" d="M13.5333 1.66602H6.46666C4.16666 1.66602 3.33333 2.49935 3.33333 4.84102V15.1577C3.33333 17.4994 4.16666 18.3327 6.46666 18.3327H13.525C15.8333 18.3327 16.6667 17.4994 16.6667 15.1577V4.84102C16.6667 2.49935 15.8333 1.66602 13.5333 1.66602ZM9.99999 16.0827C9.19999 16.0827 8.54166 15.4243 8.54166 14.6243C8.54166 13.8243 9.19999 13.166 9.99999 13.166C10.8 13.166 11.4583 13.8243 11.4583 14.6243C11.4583 15.4243 10.8 16.0827 9.99999 16.0827ZM11.6667 5.20768H8.33333C7.99166 5.20768 7.70833 4.92435 7.70833 4.58268C7.70833 4.24102 7.99166 3.95768 8.33333 3.95768H11.6667C12.0083 3.95768 12.2917 4.24102 12.2917 4.58268C12.2917 4.92435 12.0083 5.20768 11.6667 5.20768Z" fill="#292D32"/>
</g>
</g>
</svg>
