<svg width="12" height="12" viewBox="0 0 12 12" fill="none" xmlns="http://www.w3.org/2000/svg">
<g id="Telegram" clip-path="url(#clip0_642_4089)">
<path id="Vector" d="M6 0.480469C9.04871 0.480469 11.52 2.95175 11.52 6.00047C11.52 9.04919 9.04871 11.5205 6 11.5205C2.95128 11.5205 0.479996 9.04919 0.479996 6.00047C0.479996 2.95175 2.95128 0.480469 6 0.480469ZM7.90415 8.25047C8.00567 7.93895 8.48135 4.83431 8.54016 4.22255C8.55791 4.03727 8.49936 3.91415 8.38464 3.85919C8.24592 3.79247 8.04047 3.82583 7.80216 3.91175C7.47528 4.02959 3.2964 5.80391 3.05496 5.90663C2.826 6.00383 2.60952 6.10991 2.60952 6.26351C2.60952 6.37151 2.6736 6.43223 2.85024 6.49535C3.03408 6.56087 3.49704 6.70127 3.7704 6.77663C4.03368 6.84935 4.33344 6.78623 4.50144 6.68183C4.67952 6.57119 6.73464 5.19599 6.88224 5.07551C7.0296 4.95503 7.1472 5.10935 7.02672 5.23007C6.90624 5.35055 5.49551 6.71975 5.30951 6.90935C5.08368 7.13951 5.244 7.37807 5.39544 7.47359C5.56848 7.58255 6.81287 8.41727 7.00032 8.55119C7.18776 8.68511 7.37784 8.74583 7.55184 8.74583C7.72583 8.74583 7.81751 8.51663 7.90415 8.25047Z" fill="black"/>
</g>
<defs>
<clipPath id="clip0_642_4089">
<rect width="12" height="12" fill="white"/>
</clipPath>
</defs>
</svg>
