<svg width="12" height="12" viewBox="0 0 12 12" fill="none" xmlns="http://www.w3.org/2000/svg">
<g id="vuesax/bold/whatsapp">
<g id="whatsapp">
<path id="Vector" d="M10.99 5.70522C10.82 2.80522 8.18499 0.570225 5.14999 1.07023C3.05999 1.41523 1.38499 3.11021 1.05999 5.20021C0.869994 6.41021 1.12 7.55522 1.665 8.50022L1.22 10.1552C1.12 10.5302 1.46499 10.8702 1.83499 10.7652L3.46499 10.3152C4.20499 10.7502 5.06999 11.0002 5.99499 11.0002C8.81499 11.0002 11.155 8.51522 10.99 5.70522ZM8.44 7.86022C8.395 7.95022 8.33999 8.03522 8.26999 8.11522C8.14499 8.25022 8.00998 8.35022 7.85998 8.41022C7.70998 8.47522 7.54499 8.50522 7.36999 8.50522C7.11499 8.50522 6.83999 8.44523 6.55499 8.32023C6.26499 8.19523 5.98 8.03021 5.695 7.82521C5.405 7.61521 5.135 7.38022 4.875 7.12522C4.615 6.86522 4.38498 6.59021 4.17498 6.30521C3.96998 6.02021 3.80499 5.73521 3.68499 5.45021C3.56499 5.16522 3.505 4.89022 3.505 4.63022C3.505 4.46022 3.535 4.29522 3.595 4.14522C3.655 3.99022 3.75001 3.85022 3.88501 3.72522C4.04501 3.56522 4.22 3.49022 4.40499 3.49022C4.47499 3.49022 4.54498 3.50522 4.60998 3.53522C4.67498 3.56522 4.73499 3.61022 4.77999 3.67522L5.35998 4.49521C5.40498 4.56021 5.43999 4.61522 5.45999 4.67022C5.48499 4.72522 5.49499 4.77521 5.49499 4.82521C5.49499 4.88521 5.475 4.94522 5.44 5.00522C5.405 5.06522 5.35998 5.12522 5.29998 5.18522L5.10998 5.38521C5.07998 5.41521 5.07 5.44522 5.07 5.48522C5.07 5.50522 5.07498 5.52522 5.07998 5.54522C5.08998 5.56522 5.095 5.58022 5.1 5.59522C5.145 5.68022 5.22499 5.78521 5.33499 5.91521C5.44999 6.04521 5.57001 6.18022 5.70001 6.31022C5.83501 6.44522 5.965 6.56521 6.1 6.68021C6.23 6.79021 6.33998 6.86522 6.42498 6.91022C6.43998 6.91522 6.455 6.92521 6.47 6.93021C6.49 6.94021 6.51 6.94022 6.535 6.94022C6.58 6.94022 6.61001 6.92522 6.64001 6.89522L6.82998 6.70522C6.89498 6.64022 6.95501 6.59522 7.01001 6.56522C7.07001 6.53022 7.125 6.51021 7.19 6.51021C7.24 6.51021 7.29 6.52022 7.345 6.54522C7.4 6.57022 7.45999 6.60022 7.51999 6.64522L8.35 7.23522C8.415 7.28022 8.45999 7.33522 8.48999 7.39522C8.51499 7.46022 8.52999 7.52021 8.52999 7.59021C8.49999 7.67521 8.48 7.77022 8.44 7.86022Z" fill="#788FBC"/>
</g>
</g>
</svg>
