<svg width="78" height="74" viewBox="0 0 78 74" fill="none" xmlns="http://www.w3.org/2000/svg">
<rect width="78" height="74" rx="5" fill="#F3F5F9"/>
<path fill-rule="evenodd" clip-rule="evenodd" d="M31 30.4C31 28.5983 32.4042 27 34.3134 27H39.3425C40.3927 27 41.4567 27.3918 42.2604 28.1908L42.2701 28.2005L45.8866 31.8961C46.6883 32.6965 47.0956 33.869 46.9809 34.9571V43.6C46.9809 45.4017 45.5767 47 43.6675 47H34.3134C32.4042 47 31 45.4017 31 43.6V30.4ZM34.3134 29C33.6074 29 33 29.6017 33 30.4V43.6C33 44.3983 33.6074 45 34.3134 45H43.6675C44.3735 45 44.9809 44.3983 44.9809 43.6V34.9C44.9809 34.8583 44.9835 34.8166 44.9888 34.7753C45.0504 34.2846 44.8563 33.692 44.4712 33.3092L44.4615 33.2995L40.8459 29.6048C40.443 29.2067 39.8996 29 39.3425 29H34.3134Z" fill="#526DA4"/>
</svg>
