<svg width="69" height="69" viewBox="0 0 69 69" fill="none" xmlns="http://www.w3.org/2000/svg">
<rect width="69" height="69" rx="12" fill="#FAFBFE"/>
<path d="M40.5375 24.2812H22.8375C22.3125 24.2812 21.825 24.3 21.375 24.3187C16.9313 24.5812 15.75 26.2125 15.75 31.275V32.3625C15.75 33.3937 16.5938 34.2375 17.625 34.2375H45.75C46.7812 34.2375 47.625 33.3937 47.625 32.3625V31.275C47.625 25.6875 46.2 24.2812 40.5375 24.2812Z" fill="#0326B6"/>
<path d="M17.625 37.0498C16.5938 37.0498 15.75 37.8936 15.75 38.9248V44.3811C15.75 49.9686 17.175 51.3748 22.8375 51.3748H40.5375C46.1063 51.3748 47.5688 50.0248 47.625 44.6811V38.9248C47.625 37.8936 46.7812 37.0498 45.75 37.0498H17.625ZM25.05 46.7998H21.8438C21.075 46.7998 20.4375 46.1623 20.4375 45.3936C20.4375 44.6248 21.075 43.9873 21.8438 43.9873H25.0687C25.8375 43.9873 26.475 44.6248 26.475 45.3936C26.475 46.1623 25.8375 46.7998 25.05 46.7998ZM35.5312 46.7998H29.0812C28.3125 46.7998 27.675 46.1623 27.675 45.3936C27.675 44.6248 28.3125 43.9873 29.0812 43.9873H35.5312C36.3 43.9873 36.9375 44.6248 36.9375 45.3936C36.9375 46.1623 36.3188 46.7998 35.5312 46.7998Z" fill="#0326B6"/>
<path d="M53.25 36.9937V27.1688C53.25 21.3 49.8938 18.75 44.8313 18.75H28.0875C26.6625 18.75 25.3875 18.9563 24.2625 19.3875C23.3813 19.7063 22.5938 20.175 21.9563 20.7938C21.6188 21.1125 21.8813 21.6375 22.3688 21.6375H42.75C46.9688 21.6375 50.3813 25.05 50.3813 29.2688V42.7125C50.3813 43.1812 50.8875 43.4438 51.225 43.1062C52.5188 41.7375 53.25 39.7312 53.25 36.9937Z" fill="#0326B6"/>
</svg>
