<svg width="33" height="32" viewBox="0 0 33 32" fill="none" xmlns="http://www.w3.org/2000/svg">
<path d="M16.5 29.3327C23.8638 29.3327 29.8333 23.3631 29.8333 15.9993C29.8333 8.63555 23.8638 2.66602 16.5 2.66602C9.13616 2.66602 3.16663 8.63555 3.16663 15.9993C3.16663 23.3631 9.13616 29.3327 16.5 29.3327Z" stroke="#0326B6" stroke-width="1.5" stroke-linecap="round" stroke-linejoin="round"/>
<path d="M11.1667 4H12.5C9.90005 11.7867 9.90005 20.2133 12.5 28H11.1667" fill="#35CCFF"/>
<path d="M11.1667 4H12.5C9.90005 11.7867 9.90005 20.2133 12.5 28H11.1667" stroke="#35CCFF" stroke-width="1.5" stroke-linecap="round" stroke-linejoin="round"/>
<path d="M20.5 4C23.1 11.7867 23.1 20.2133 20.5 28" stroke="#0326B6" stroke-width="1.5" stroke-linecap="round" stroke-linejoin="round"/>
<path d="M4.5 21.3333V20C12.2867 22.6 20.7133 22.6 28.5 20V21.3333" stroke="#0326B6" stroke-width="1.5" stroke-linecap="round" stroke-linejoin="round"/>
<path d="M4.5 12.0008C12.2867 9.40078 20.7133 9.40078 28.5 12.0008" stroke="#0326B6" stroke-width="1.5" stroke-linecap="round" stroke-linejoin="round"/>
</svg>
