<svg width="32" height="32" viewBox="0 0 32 32" fill="none" xmlns="http://www.w3.org/2000/svg">
<path d="M21.7066 29.4673H16.6399C15.8933 29.4673 14.2666 29.2406 13.3999 28.374L9.35994 25.254L10.5866 23.6673L14.7199 26.8673C15.0533 27.1873 15.8933 27.454 16.6399 27.454H21.7066C22.9066 27.454 24.1999 26.494 24.4666 25.414L27.6933 15.614C27.9066 15.0273 27.8666 14.494 27.5866 14.1073C27.2933 13.694 26.7599 13.454 26.1066 13.454H20.7733C20.0799 13.454 19.4399 13.1606 18.9999 12.654C18.5466 12.134 18.3466 11.4406 18.4533 10.7206L19.1199 6.44064C19.2799 5.69397 18.7733 4.85397 18.0533 4.61397C17.3999 4.37397 16.5599 4.72064 16.2666 5.1473L10.7999 13.2806L9.14661 12.174L14.6133 4.04064C15.4533 2.7873 17.2933 2.1873 18.7333 2.73397C20.3999 3.28064 21.4666 5.12064 21.0933 6.8273L20.4399 11.0273C20.4266 11.1206 20.4266 11.254 20.5199 11.3606C20.5866 11.4273 20.6799 11.4673 20.7866 11.4673H26.1199C27.4266 11.4673 28.5599 12.014 29.2266 12.9606C29.8799 13.8806 30.0133 15.094 29.5866 16.2673L26.3999 25.974C25.9066 27.9073 23.8533 29.4673 21.7066 29.4673Z" fill="#0326B6"/>
<path d="M7.17334 28.0005H5.84001C3.37334 28.0005 2.17334 26.8405 2.17334 24.4672V11.4005C2.17334 9.02719 3.37334 7.86719 5.84001 7.86719H7.17334C9.64001 7.86719 10.84 9.02719 10.84 11.4005V24.4672C10.84 26.8405 9.64001 28.0005 7.17334 28.0005ZM5.84001 9.86719C4.38667 9.86719 4.17334 10.2139 4.17334 11.4005V24.4672C4.17334 25.6539 4.38667 26.0005 5.84001 26.0005H7.17334C8.62667 26.0005 8.84001 25.6539 8.84001 24.4672V11.4005C8.84001 10.2139 8.62667 9.86719 7.17334 9.86719H5.84001Z" fill="#35CCFF"/>
</svg>
