<svg width="32" height="32" viewBox="0 0 32 32" fill="none" xmlns="http://www.w3.org/2000/svg">
<g id="vuesax/outline/moneys">
<g id="moneys">
<path id="Vector" d="M19.8535 24.293H8.1335C7.44017 24.293 6.78682 24.2264 6.20015 24.093C5.89349 24.053 5.52017 23.9463 5.1335 23.7996C3.36017 23.133 1.26685 21.493 1.26685 17.413V10.5463C1.26685 6.18631 3.7735 3.67969 8.1335 3.67969H19.8535C23.5335 3.67969 25.9068 5.43965 26.5468 8.63965C26.6668 9.22632 26.7202 9.85297 26.7202 10.5463V17.413C26.7202 21.7997 24.2268 24.293 19.8535 24.293ZM8.14681 5.70638C4.86681 5.70638 3.28015 7.293 3.28015 10.573V17.4397C3.28015 19.8264 4.12017 21.293 5.84017 21.9464C6.10684 22.0397 6.36018 22.1063 6.60018 22.1463C7.10685 22.253 7.60014 22.3063 8.14681 22.3063H19.8668C23.1468 22.3063 24.7335 20.7197 24.7335 17.4397V10.573C24.7335 10.013 24.6935 9.51966 24.6002 9.06633C24.1468 6.79966 22.6002 5.70638 19.8668 5.70638H8.14681Z" fill="#35CCFF"/>
<path id="Vector_2" d="M23.8535 28.2931H12.1335C11.0002 28.2931 9.98686 28.1331 9.12019 27.7998C7.16019 27.0664 5.88018 25.5198 5.44018 23.3065C5.37351 22.9731 5.48021 22.6265 5.72021 22.3998C5.96021 22.1598 6.30688 22.0665 6.64021 22.1465C7.08021 22.2398 7.57354 22.2931 8.13354 22.2931H19.8535C23.1335 22.2931 24.7202 20.7065 24.7202 17.4265V10.5598C24.7202 9.99979 24.6802 9.50645 24.5869 9.05312C24.5202 8.71978 24.6269 8.38646 24.8535 8.14646C25.0935 7.90646 25.4269 7.79978 25.7602 7.87978C28.9602 8.53311 30.7202 10.9065 30.7202 14.5598V21.4265C30.7202 25.7998 28.2269 28.2931 23.8535 28.2931ZM7.89355 24.2931C8.32021 25.0664 8.9602 25.6132 9.8402 25.9332C10.4802 26.1732 11.2535 26.2931 12.1468 26.2931H23.8669C27.1469 26.2931 28.7335 24.7065 28.7335 21.4265V14.5598C28.7335 12.4531 28.0802 11.0531 26.7335 10.3198C26.7335 10.3998 26.7335 10.4798 26.7335 10.5598V17.4265C26.7335 21.7865 24.2269 24.2931 19.8669 24.2931H8.14684C8.05351 24.2931 7.97355 24.2931 7.89355 24.2931Z" fill="#0326B6"/>
<path id="Vector_3" d="M13.9998 18.5205C11.5064 18.5205 9.47974 16.4938 9.47974 14.0005C9.47974 11.5072 11.5064 9.48047 13.9998 9.48047C16.4931 9.48047 18.5198 11.5072 18.5198 14.0005C18.5198 16.4938 16.4931 18.5205 13.9998 18.5205ZM13.9998 11.4805C12.6131 11.4805 11.4797 12.6138 11.4797 14.0005C11.4797 15.3872 12.6131 16.5205 13.9998 16.5205C15.3864 16.5205 16.5198 15.3872 16.5198 14.0005C16.5198 12.6138 15.3864 11.4805 13.9998 11.4805Z" fill="#35CCFF"/>
<path id="Vector_4" d="M6.37378 17.9331C5.82711 17.9331 5.37378 17.4798 5.37378 16.9331V11.0664C5.37378 10.5197 5.82711 10.0664 6.37378 10.0664C6.92045 10.0664 7.37378 10.5197 7.37378 11.0664V16.9331C7.37378 17.4798 6.93378 17.9331 6.37378 17.9331Z" fill="#35CCFF"/>
<path id="Vector_5" d="M21.6133 17.9331C21.0666 17.9331 20.6133 17.4798 20.6133 16.9331V11.0664C20.6133 10.5197 21.0666 10.0664 21.6133 10.0664C22.1599 10.0664 22.6133 10.5197 22.6133 11.0664V16.9331C22.6133 17.4798 22.1733 17.9331 21.6133 17.9331Z" fill="#35CCFF"/>
</g>
</g>
</svg>
